<svg xmlns="http://www.w3.org/2000/svg" viewBox="0 0 254.34 254.34"><defs><style>.cls-1{fill:#e84242;}</style></defs><g id="Layer_2" data-name="Layer 2"><g id="Layer_1-2" data-name="Layer 1"><circle class="cls-1" cx="127.17" cy="127.03" r="119.64"/><path d="M127.17,254.34A127.17,127.17,0,1,1,254.34,127.17,127.32,127.32,0,0,1,127.17,254.34Zm0-246.81A119.65,119.65,0,1,0,246.82,127.17,119.78,119.78,0,0,0,127.17,7.53Z"/><polygon points="59.31 130.63 57.95 137.37 56.62 130.36 51.4 105.21 41.71 105.21 36.75 130.51 35.48 137.37 34.22 130.36 28.42 105.21 18.67 105.21 31.13 149.14 39.65 149.14 44.96 123.45 46.51 114.95 48.06 123.45 53.36 149.14 62.15 149.14 74.51 105.21 65.17 105.21 59.31 130.63"/><path d="M228.91,127.17a101.43,101.43,0,0,0-24.08-65.7l12.85-12.86L205.47,36.4,192.61,49.27a101.66,101.66,0,0,0-131.71.47L48,36.78,35.74,49l13,13A102,102,0,0,0,33,87.92H50.58a86,86,0,1,1-.14,78.23H32.93a102,102,0,0,0,16.2,26.6L36.22,205.66l12.21,12.21L61.33,205a101.65,101.65,0,0,0,130.85.47l12.91,12.91,12.21-12.21L204.47,193.3A101.43,101.43,0,0,0,228.91,127.17Z"/><path d="M146.61,90q-5.88-10.44-11.87-20.83c-3.39-5.86-7.52-5.87-10.89,0-3.13,5.39-6.19,10.81-9.27,16.22Q95.23,119.3,75.87,153.24c-3.8,6.68-1.73,10.14,6,10.15H92.5c3.84,0,7.68,0,11.53,0a15,15,0,0,0,13.64-7.81q14.6-25,29-50.14A14.79,14.79,0,0,0,146.61,90Z"/><path d="M167,125.79c-3.29-5.69-7.45-5.72-10.76-.07Q147.91,140,139.75,154.3c-3,5.28-.81,9,5.26,9.07,5.5.06,11,0,16.52,0,5.29,0,10.59,0,15.89,0,6.71,0,8.92-3.66,5.66-9.46Q175.15,139.82,167,125.79Z"/></g></g></svg>