<svg xmlns="http://www.w3.org/2000/svg" viewBox="0 0 254.34 254.34"><defs><style>.cls-1{fill:#68c844;}</style></defs><g id="Layer_2" data-name="Layer 2"><g id="Layer_1-2" data-name="Layer 1"><circle class="cls-1" cx="127.17" cy="127.03" r="119.64"/><path d="M127.17,254.34A127.17,127.17,0,1,1,254.34,127.17,127.32,127.32,0,0,1,127.17,254.34Zm0-246.81A119.65,119.65,0,1,0,246.82,127.17,119.78,119.78,0,0,0,127.17,7.53Z"/><polygon points="59.31 130.63 57.95 137.37 56.62 130.36 51.4 105.21 41.71 105.21 36.75 130.51 35.48 137.37 34.22 130.36 28.42 105.21 18.67 105.21 31.13 149.14 39.65 149.14 44.96 123.45 46.51 114.95 48.06 123.45 53.36 149.14 62.15 149.14 74.51 105.21 65.17 105.21 59.31 130.63"/><path d="M228.91,127.17a101.43,101.43,0,0,0-24.08-65.7l12.85-12.86L205.47,36.4,192.61,49.27a101.66,101.66,0,0,0-131.71.47L48,36.78,35.74,49l13,13A102,102,0,0,0,33,87.92H50.58a86,86,0,1,1-.14,78.23H32.93a102,102,0,0,0,16.2,26.6L36.22,205.66l12.21,12.21L61.33,205a101.65,101.65,0,0,0,130.85.47l12.91,12.91,12.21-12.21L204.47,193.3A101.43,101.43,0,0,0,228.91,127.17Z"/><g id="Vector"><path id="path2_fill" data-name="path2 fill" d="M157.65,96.18c-4.1-11.71-15.31-13.11-28.41-11l-4.1-16.6-10,2.5,4,16.21-7.9,2.1-4-16.31-10,2.5,4.11,16.61c-2.1.6-4.31,1.2-6.31,1.7v-.1l-13.8,3.5,2.7,10.8s7.3-2,7.2-1.8c4-1,5.9,1,6.8,3l4.71,19a4.25,4.25,0,0,1,1.1-.2l-1.1.3,6.5,26.61a3.72,3.72,0,0,1-2.9,4.3c.2.1-7.3,1.8-7.3,1.8l1,12.6,13-3.3c2.4-.6,4.8-1.2,7.1-1.7l4.1,16.8,10-2.5-4.1-16.7c2.8-.6,5.4-1.3,8-1.9l4.1,16.6,10-2.5L148,161.69c16.51-5.2,27.21-12.5,24.71-28.91-2-13.2-9.4-17.4-19.5-17.3,5.1-4.5,7.4-10.7,4.4-19.3Zm-5.1,39.5c3.1,12.61-18.51,16.51-25.21,18.21l-5.5-22.31C128.64,130,149.35,122.68,152.55,135.68Zm-12.31-30.2c2.8,11.4-15.2,14.6-20.8,16l-5-20.2C120,99.78,137.24,93.48,140.24,105.48Z"/></g></g></g></svg>