<svg xmlns="http://www.w3.org/2000/svg" viewBox="0 0 254.34 254.34"><defs><style>.cls-1{fill:#fccd51;}</style></defs><g id="Layer_2" data-name="Layer 2"><g id="Layer_1-2" data-name="Layer 1"><circle class="cls-1" cx="127.17" cy="127.03" r="119.64"/><path d="M127.17,254.34A127.17,127.17,0,1,1,254.34,127.17,127.32,127.32,0,0,1,127.17,254.34Zm0-246.81A119.65,119.65,0,1,0,246.82,127.17,119.78,119.78,0,0,0,127.17,7.53Z"/><polygon points="59.31 130.63 57.95 137.37 56.62 130.36 51.4 105.21 41.71 105.21 36.75 130.51 35.48 137.37 34.22 130.36 28.42 105.21 18.67 105.21 31.13 149.14 39.65 149.14 44.96 123.45 46.51 114.95 48.06 123.45 53.36 149.14 62.15 149.14 74.51 105.21 65.17 105.21 59.31 130.63"/><path d="M228.91,127.17a101.43,101.43,0,0,0-24.08-65.7l12.85-12.86L205.47,36.4,192.61,49.27a101.66,101.66,0,0,0-131.71.47L48,36.78,35.74,49l13,13A102,102,0,0,0,33,87.92H50.58a86,86,0,1,1-.14,78.23H32.93a102,102,0,0,0,16.2,26.6L36.22,205.66l12.21,12.21L61.33,205a101.65,101.65,0,0,0,130.85.47l12.91,12.91,12.21-12.21L204.47,193.3A101.43,101.43,0,0,0,228.91,127.17Z"/><path d="M176.36,116a38.89,38.89,0,0,0-74.85-14.8,38.89,38.89,0,1,0,51.32,50.53A39,39,0,0,0,176.36,116Zm-59.49,50.16a29.22,29.22,0,0,1-18.24-52.06c0,.63,0,1.26,0,1.9a38.93,38.93,0,0,0,38.88,38.89c.84,0,1.68,0,2.51-.08A29.21,29.21,0,0,1,116.87,166.14Zm28.31-22a29.25,29.25,0,0,1-36-35.47,29.23,29.23,0,0,1,36,35.47Zm10.53-5.37c0-.63,0-1.27,0-1.9A38.94,38.94,0,0,0,116.87,98c-.84,0-1.68,0-2.5.08a29.22,29.22,0,1,1,41.34,40.71Z"/></g></g></svg>