<svg xmlns="http://www.w3.org/2000/svg" viewBox="0 0 254.34 254.34"><defs><style>.cls-1{isolation:isolate;}.cls-2{fill:#28d17c;mix-blend-mode:multiply;}</style></defs><g class="cls-1"><g id="Layer_2" data-name="Layer 2"><g id="Layer_1-2" data-name="Layer 1"><circle class="cls-2" cx="127.17" cy="127.03" r="119.64"/><path d="M127.17,254.34A127.17,127.17,0,1,1,254.34,127.17,127.32,127.32,0,0,1,127.17,254.34Zm0-246.81A119.65,119.65,0,1,0,246.82,127.17,119.78,119.78,0,0,0,127.17,7.53Z"/><polygon points="59.31 130.63 57.95 137.37 56.62 130.36 51.4 105.21 41.71 105.21 36.75 130.51 35.48 137.37 34.22 130.36 28.42 105.21 18.67 105.21 31.13 149.14 39.65 149.14 44.96 123.45 46.51 114.95 48.06 123.45 53.36 149.14 62.15 149.14 74.51 105.21 65.17 105.21 59.31 130.63"/><path d="M228.91,127.17a101.43,101.43,0,0,0-24.08-65.7l12.85-12.86L205.47,36.4,192.61,49.27a101.66,101.66,0,0,0-131.71.47L48,36.78,35.74,49l13,13A102,102,0,0,0,33,87.92H50.58a86,86,0,1,1-.14,78.23H32.93a102,102,0,0,0,16.2,26.6L36.22,205.66l12.21,12.21L61.33,205a101.65,101.65,0,0,0,130.85.47l12.91,12.91,12.21-12.21L204.47,193.3A101.43,101.43,0,0,0,228.91,127.17Z"/><path id="symbol-celo-dollar" d="M124.19,177.11a40.63,40.63,0,0,0,38.22-27h-11a30.19,30.19,0,0,1-27.22,17,30.55,30.55,0,0,1-30.47-30.47,30.21,30.21,0,0,1,16.94-27.23v-11a40.55,40.55,0,0,0,13.53,78.79ZM140.77,140h9.38v-2.16l-.72-4.69c10.1-1.08,16.41-6.67,16.41-14.78,0-19.11-32.46-11.36-32.46-21.1,0-3.42,4-5.59,10.82-5.59a42.72,42.72,0,0,1,16.59,3.79V86.06a53,53,0,0,0-12.26-2l.72-4.69V77.23h-9.38v2.16l.72,4.69C130,85.16,123.65,90.21,123.65,97.6c0,19.84,32.45,10.82,32.45,21.46,0,3.6-4.33,6-10.64,6-6.49,0-13.16-2-21.27-5.77V129a46.79,46.79,0,0,0,17.31,4.15l-.73,4.69Z"/></g></g></g></svg>