<svg xmlns="http://www.w3.org/2000/svg" viewBox="0 0 254.34 254.34"><defs><style>.cls-1{fill:#e9007a;}</style></defs><g id="Layer_2" data-name="Layer 2"><g id="Layer_1-2" data-name="Layer 1"><circle class="cls-1" cx="127.17" cy="127.03" r="119.64"/><path d="M127.17,254.34A127.17,127.17,0,1,1,254.34,127.17,127.32,127.32,0,0,1,127.17,254.34Zm0-246.81A119.65,119.65,0,1,0,246.82,127.17,119.78,119.78,0,0,0,127.17,7.53Z"/><polygon points="59.31 130.63 57.95 137.37 56.62 130.36 51.4 105.21 41.71 105.21 36.75 130.51 35.48 137.37 34.22 130.36 28.42 105.21 18.67 105.21 31.13 149.14 39.65 149.14 44.96 123.45 46.51 114.95 48.06 123.45 53.36 149.14 62.15 149.14 74.51 105.21 65.17 105.21 59.31 130.63"/><path d="M228.91,127.17a101.43,101.43,0,0,0-24.08-65.7l12.85-12.86L205.47,36.4,192.61,49.27a101.66,101.66,0,0,0-131.71.47L48,36.78,35.74,49l13,13A102,102,0,0,0,33,87.92H50.58a86,86,0,1,1-.14,78.23H32.93a102,102,0,0,0,16.2,26.6L36.22,205.66l12.21,12.21L61.33,205a101.65,101.65,0,0,0,130.85.47l12.91,12.91,12.21-12.21L204.47,193.3A101.43,101.43,0,0,0,228.91,127.17Z"/><g id="_2M8MgV.tif" data-name="2M8MgV.tif"><path d="M128.67,63.35c.57.06,1.15.13,1.73.17a43.76,43.76,0,0,1,13,3,45.06,45.06,0,0,1,21.28,17.26,44.44,44.44,0,0,1,6.58,15.86,39.94,39.94,0,0,1,.9,8.51c0,1.43,0,2.85-.1,4.27a42.69,42.69,0,0,1-2,10.32,45.27,45.27,0,0,1-15.85,22.36,44.54,44.54,0,0,1-18.62,8.36,52.87,52.87,0,0,1-6.63.81c-1.76.13-3.51.34-5.27.51a16,16,0,0,0-12.1,9.8,19.33,19.33,0,0,0-1.11,4c-.55,2.69-1.11,5.39-1.67,8.08-.06.32-.07.66-.15,1a6,6,0,0,1-6.79,4.27,10.55,10.55,0,0,1-1.36-.27,6,6,0,0,1-3.91-7q2.79-13.22,5.61-26.43,2.48-11.58,5-23.16c1.23-5.71,2.45-11.41,3.7-17.11a6,6,0,0,1,4.78-4.91,6.2,6.2,0,0,1,7.5,5.22,6.74,6.74,0,0,1-.12,2.37q-2.26,10.19-4.53,20.36c-.86,3.83-1.71,7.66-2.36,11.52,0,.15-.08.29-.11.44-.06.34.17.57.5.46a30.62,30.62,0,0,1,6.93-1.09c2.48-.2,5-.33,7.43-.56a31.48,31.48,0,0,0,13.46-4.36,32.46,32.46,0,0,0,15.28-20.55,31.74,31.74,0,0,0,.89-9.62,32.86,32.86,0,0,0-19.75-28.32,32.86,32.86,0,0,0-44.79,21.86,33.44,33.44,0,0,0-1,10.59,29,29,0,0,0,1.64,8.07,6.44,6.44,0,0,1-3.3,8,5.73,5.73,0,0,1-4.34.17,6.31,6.31,0,0,1-4.19-4.18,44.91,44.91,0,0,1-2-9.59c-.1-1-.17-1.91-.25-2.86,0-.16-.07-.32-.1-.48v-3c0-.42.14-.83.16-1.24a42.68,42.68,0,0,1,.68-5.52,45.69,45.69,0,0,1,42.71-37.28,4.51,4.51,0,0,0,.53-.08Z"/><path d="M129.38,183.5a7.74,7.74,0,0,1-5.71-2.3,7.24,7.24,0,0,1-2.14-5.35,7.56,7.56,0,0,1,14.3-3.49,8.11,8.11,0,0,1,.83,4.75,7,7,0,0,1-4,5.65A6.8,6.8,0,0,1,129.38,183.5Z"/></g></g></g></svg>