<svg xmlns="http://www.w3.org/2000/svg" viewBox="0 0 254.34 254.34"><defs><style>.cls-1{fill:#0f50e3;}</style></defs><g id="Layer_2" data-name="Layer 2"><g id="Layer_1-2" data-name="Layer 1"><circle class="cls-1" cx="127.17" cy="127.03" r="119.64"/><path d="M127.17,254.34A127.17,127.17,0,1,1,254.34,127.17,127.32,127.32,0,0,1,127.17,254.34Zm0-246.81A119.65,119.65,0,1,0,246.82,127.17,119.78,119.78,0,0,0,127.17,7.53Z"/><polygon points="59.31 130.63 57.95 137.37 56.62 130.36 51.4 105.21 41.71 105.21 36.75 130.51 35.48 137.37 34.22 130.36 28.42 105.21 18.67 105.21 31.13 149.14 39.65 149.14 44.96 123.45 46.51 114.95 48.06 123.45 53.36 149.14 62.15 149.14 74.51 105.21 65.17 105.21 59.31 130.63"/><path d="M228.91,127.17a101.43,101.43,0,0,0-24.08-65.7l12.85-12.86L205.47,36.4,192.61,49.27a101.66,101.66,0,0,0-131.71.47L48,36.78,35.74,49l13,13A102,102,0,0,0,33,87.92H50.58a86,86,0,1,1-.14,78.23H32.93a102,102,0,0,0,16.2,26.6L36.22,205.66l12.21,12.21L61.33,205a101.65,101.65,0,0,0,130.85.47l12.91,12.91,12.21-12.21L204.47,193.3A101.43,101.43,0,0,0,228.91,127.17Z"/><path d="M84.43,165.24a2.48,2.48,0,0,0,.17-.37c.6-2.9,1.19-5.8,1.79-8.7q1.44-7,2.87-13.93,1.38-6.74,2.77-13.47l2.79-13.55q1.09-5.3,2.17-10.58a2.37,2.37,0,0,1,.42-1l29.52-40.62c.08-.12.17-.23.3-.39l.33.44q5.19,7.14,10.36,14.29l18.86,26a2.19,2.19,0,0,1,.41.92q1.81,8.73,3.65,17.47,1.65,7.88,3.3,15.76,2,9.3,3.89,18.6.9,4.34,1.82,8.69c0,.18,0,.36.07.57l-42.68,26-.4-.23-42-25.56c-.13-.08-.27-.13-.41-.2Zm42.79,10.17c.09-.25.15-.41.2-.56,1-2.88,1.91-5.76,2.86-8.64l20-60.4a.75.75,0,0,0-.11-.77q-4.91-6.74-9.79-13.48-6.44-8.85-12.85-17.71l-.29-.37c-.12.16-.21.27-.29.39L104.32,105a.82.82,0,0,0-.13.82q11.37,34.32,22.72,68.66C127,174.77,127.1,175,127.22,175.41Zm26.05-59.27h-.1q-10.74,32.58-21.46,65.16a.94.94,0,0,0,0,.16l0,0s0,0,.05,0l31-19Q158,139.34,153.27,116.14ZM91.44,162.56l31.12,19-.11-.42q-10.71-32.51-21.43-65s0,0,0,0h-.06Q96.19,139.33,91.44,162.56Z"/></g></g></svg>