<svg xmlns="http://www.w3.org/2000/svg" viewBox="0 0 254.34 254.34"><defs><style>.cls-1{fill:#068cf8;}</style></defs><g id="Layer_2" data-name="Layer 2"><g id="Layer_1-2" data-name="Layer 1"><circle class="cls-1" cx="127.17" cy="127.03" r="119.64"/><path d="M127.17,254.34A127.17,127.17,0,1,1,254.34,127.17,127.32,127.32,0,0,1,127.17,254.34Zm0-246.81A119.65,119.65,0,1,0,246.82,127.17,119.78,119.78,0,0,0,127.17,7.53Z"/><polygon points="59.31 130.63 57.95 137.37 56.62 130.36 51.4 105.21 41.71 105.21 36.75 130.51 35.48 137.37 34.22 130.36 28.42 105.21 18.67 105.21 31.13 149.14 39.65 149.14 44.96 123.45 46.51 114.95 48.06 123.45 53.36 149.14 62.15 149.14 74.51 105.21 65.17 105.21 59.31 130.63"/><path d="M228.91,127.17a101.43,101.43,0,0,0-24.08-65.7l12.85-12.86L205.47,36.4,192.61,49.27a101.66,101.66,0,0,0-131.71.47L48,36.78,35.74,49l13,13A102,102,0,0,0,33,87.92H50.58a86,86,0,1,1-.14,78.23H32.93a102,102,0,0,0,16.2,26.6L36.22,205.66l12.21,12.21L61.33,205a101.65,101.65,0,0,0,130.85.47l12.91,12.91,12.21-12.21L204.47,193.3A101.43,101.43,0,0,0,228.91,127.17Z"/><path d="M160,65.81c-19.14-12.07-32.69,14.43-33,15.32-3.53,6.48-6.19,16.78-8,24.44l-25-3.83-.89,6.77,24.45,3.54c-.59,3.53-.89,5.89-.89,5.89l-1.47,7.36v.3l-24.15-3.54-.88,6.77,24.15,3.54c-6.19,31.8-10.9,41.52-15.61,46.82-.89,1.18-7.66,5.6-11.19-2.35-2.36-5.6-6.78-5-6.78-5-1.47-.29-7.36,3.54,1.77,9.43,18.85,12.07,32.69-14.44,33-15.32,3.54-6.48,8-24.44,9.72-32.1l25,3.83.89-6.77-24.74-3.54c.59-3.53.88-5.89.88-5.89l1.18-7.36v-.29L153,117.35l.89-6.77L129.7,107c6.77-31.8,9.72-33.57,14.43-38.87.88-1.18,7.66-5.6,11.19,2.35,2.36,5.6,6.77,5,6.77,5,1.18,0,7.07-3.83-2.06-9.72"/></g></g></svg>