<svg xmlns="http://www.w3.org/2000/svg" viewBox="0 0 254.34 254.34"><defs><style>.cls-1{fill:#5e35ff;}</style></defs><g id="Layer_2" data-name="Layer 2"><g id="Layer_1-2" data-name="Layer 1"><circle class="cls-1" cx="127.17" cy="127.03" r="119.64"/><path d="M127.17,254.34A127.17,127.17,0,1,1,254.34,127.17,127.32,127.32,0,0,1,127.17,254.34Zm0-246.81A119.65,119.65,0,1,0,246.82,127.17,119.78,119.78,0,0,0,127.17,7.53Z"/><polygon points="59.31 130.63 57.95 137.37 56.62 130.36 51.4 105.21 41.71 105.21 36.75 130.51 35.48 137.37 34.22 130.36 28.42 105.21 18.67 105.21 31.13 149.14 39.65 149.14 44.96 123.45 46.51 114.95 48.06 123.45 53.36 149.14 62.15 149.14 74.51 105.21 65.17 105.21 59.31 130.63"/><path d="M228.91,127.17a101.43,101.43,0,0,0-24.08-65.7l12.85-12.86L205.47,36.4,192.61,49.27a101.66,101.66,0,0,0-131.71.47L48,36.78,35.74,49l13,13A102,102,0,0,0,33,87.92H50.58a86,86,0,1,1-.14,78.23H32.93a102,102,0,0,0,16.2,26.6L36.22,205.66l12.21,12.21L61.33,205a101.65,101.65,0,0,0,130.85.47l12.91,12.91,12.21-12.21L204.47,193.3A101.43,101.43,0,0,0,228.91,127.17Z"/><g id="StbQC0"><path d="M179.59,108.47c-.89,1.61-1.7,3.07-2.52,4.53q-17.9,32.13-35.78,64.26a2.05,2.05,0,0,1-2.08,1.24c-3.89-.07-7.79,0-11.69,0h-1c.83-1.5,1.58-2.86,2.34-4.22,6.11-11,12.2-22,18.38-32.92,1.17-2.07,0-3.67-2.12-3.65-11.31.09-22.62,0-33.93.09a1.81,1.81,0,0,1-1.87-1c-2-3.5-4-7-6-10.44-.13-.22-.25-.46-.46-.84h1.21c16.63,0,33.26,0,49.89,0a3.32,3.32,0,0,0,3.36-2c2.53-4.84,5.16-9.62,7.78-14.41a1.24,1.24,0,0,1,.82-.59C170.41,108.46,174.9,108.47,179.59,108.47Z"/><path d="M151.25,121.4h-1q-25.17,0-50.33,0a2.8,2.8,0,0,0-2.8,1.7c-2.58,4.94-5.24,9.84-7.85,14.77a1.16,1.16,0,0,1-1.2.75c-4.4,0-8.8,0-13.36,0,.18-.34.3-.59.43-.83q19-34.09,38-68.19a1.68,1.68,0,0,1,1.68-1c4,0,8,0,12.05,0h.93c-.21.39-.34.67-.49.94l-19.89,35.63L107,106c-1,1.82-.09,3.33,2,3.33q17.19,0,34.37,0a1.55,1.55,0,0,1,1.59.91c1.92,3.46,3.91,6.88,5.87,10.31C150.94,120.76,151.06,121,151.25,121.4Z"/><path d="M142.3,141.83,123,176.43c-.23-.35-.41-.61-.57-.88-2-3.35-4.06-6.71-6.12-10.05a1.67,1.67,0,0,1,0-1.89c3.94-7.06,7.85-14.13,11.79-21.18a1.29,1.29,0,0,1,.9-.62c4.28,0,8.56,0,12.84,0A4,4,0,0,1,142.3,141.83Z"/><path d="M112.07,105.15l19.27-34.51,4.42,7.29c.75,1.24,1.47,2.49,2.27,3.7a1.55,1.55,0,0,1,0,1.8q-4.94,8.85-9.84,17.71c-.67,1.21-1.33,2.43-2,3.62a1,1,0,0,1-.7.49c-4.37,0-8.74,0-13.11,0C112.28,105.27,112.23,105.22,112.07,105.15Z"/><path d="M154.83,119.43l-4.94-8.64c-.57-1-1.17-2-1.7-3a1.18,1.18,0,0,1-.08-1c2.22-4.13,4.48-8.23,6.73-12.34,0,0,.08-.08.21-.19l2.26,4c1.41,2.52,2.84,5,4.23,7.56a1.37,1.37,0,0,1,.07,1.1c-2.14,4-4.33,8-6.5,12.06C155.05,119.12,155,119.21,154.83,119.43Z"/><path d="M99.42,127.61c1.79,3.1,3.54,6.1,5.26,9.11.56,1,1.47,1.95,1.49,2.94s-.86,1.94-1.37,2.9c-1.67,3.16-3.36,6.3-5,9.45-.13.23-.26.45-.45.8l-1.55-2.73c-1.66-3-3.34-5.9-5-8.87a1.34,1.34,0,0,1-.1-1.1C94.83,136,97,132,99.17,127.93A2,2,0,0,1,99.42,127.61Z"/><path d="M158.61,92.32c4.49,0,8.83,0,13.16,0a1.28,1.28,0,0,1,.94.53c2.34,3.77,4.64,7.58,7,11.48-.38,0-.62,0-.87,0-4.22,0-8.44,0-12.66,0a1.22,1.22,0,0,1-1.24-.71c-1.94-3.51-3.91-7-5.88-10.49C158.94,93,158.82,92.72,158.61,92.32Z"/><path d="M95.62,154.74H86.29c-1.18,0-2.37,0-3.54,0a1.65,1.65,0,0,1-1.18-.59c-2.33-3.74-4.6-7.53-7-11.4.33,0,.54-.07.76-.07,4.28,0,8.55,0,12.83,0a1.35,1.35,0,0,1,1,.46c2.16,3.76,4.27,7.54,6.39,11.32C95.61,154.48,95.59,154.55,95.62,154.74Z"/></g></g></g></svg>