<svg xmlns="http://www.w3.org/2000/svg" class="h-5 w-5" viewBox="0 0 24 24" fill="currentColor">
  <g transform="translate(5.751, 5.25)">
    <g transform="scale(0.625)">
      <path fill-rule="evenodd" d="M7 2a1 1 0 00-.707 1.707L7 4.414v3.758a1 1 0 01-.293.707l-4 4C.817 14.769 2.156 18 4.828 18h10.343c2.673 0 4.012-3.231 2.122-5.121l-4-4A1 1 0 0113 8.172V4.414l.707-.707A1 1 0 0013 2H7zm2 6.172V4h2v4.172a3 3 0 00.879 2.12l1.027 1.028a4 4 0 00-2.171.102l-.47.156a4 4 0 01-2.53 0l-.563-.187a1.993 1.993 0 00-.114-.035l1.063-1.063A3 3 0 009 8.172z" clip-rule="evenodd" />
    </g>
  </g>

<!-- 1 / (864 / 24) -->
<g transform="scale(0.027777777777777776)">
		326.78,566.04 387.07,566.04 431.16,427.17 474.71,566.04 535.02,566.04 611.6,327.77 	"/>
	<g>
		<path d="M753.65,432.05c0-78.96-28.62-151.36-76.02-207.39l40.58-40.58l-38.54-38.54l-40.61,40.61
			c-55.97-47.19-128.2-75.67-206.97-75.67c-79.59,0-152.51,29.08-208.72,77.16l-40.89-40.89l-38.54,38.54l41.13,41.13
			c-46.52,55.78-74.54,127.49-74.54,205.63c0,78.77,28.49,151,75.67,206.97l-40.76,40.75l38.54,38.54l40.72-40.72
			c56.03,47.4,128.42,76.03,207.39,76.03c78.14,0,149.85-28.03,205.63-74.54l40.74,40.74L717,681.28l-40.51-40.5
			C724.57,584.56,753.65,511.64,753.65,432.05z M432.08,703.38c-149.62,0-271.34-121.72-271.34-271.34
			c0-149.61,121.72-271.33,271.34-271.33c149.61,0,271.34,121.72,271.34,271.33C703.42,581.66,581.7,703.38,432.08,703.38z"/>
		<path d="M728.85,194.74l-14.29,14.29c50.08,63.26,77.26,140.99,77.26,222.9c0,82.56-27.62,160.86-78.47,224.4l14.29,14.29
			c54.58-67.39,84.26-150.76,84.26-238.69C811.91,344.65,782.67,261.87,728.85,194.74z"/>
		<path d="M431.82,71.92c81.91,0,159.63,27.19,222.9,77.26l14.29-14.29C601.88,81.08,519.1,51.83,431.82,51.83
			c-87.93,0-171.3,29.68-238.69,84.26l14.29,14.29C270.95,99.55,349.26,71.92,431.82,71.92z"/>
		<path d="M71.81,431.93c0-81.26,26.74-158.4,76.06-221.39l-14.29-14.29C80.53,263.1,51.72,345.3,51.72,431.93
			c0,87.28,29.25,170.06,83.06,237.19l14.29-14.29C99,591.56,71.81,513.84,71.81,431.93z"/>
		<path d="M431.82,791.93c-81.91,0-159.63-27.19-222.9-77.26l-14.29,14.29c67.13,53.82,149.91,83.06,237.19,83.06
			c86.63,0,168.83-28.81,235.69-81.86l-14.29-14.29C590.22,765.19,513.08,791.93,431.82,791.93z"/>
	</g>
</g>
</svg>
