<svg xmlns="http://www.w3.org/2000/svg" viewBox="0 0 254.34 254.34"><defs><style>.cls-1{fill:#424244;}</style></defs><g id="Layer_2" data-name="Layer 2"><g id="Layer_1-2" data-name="Layer 1"><circle class="cls-1" cx="127.17" cy="127.03" r="119.64"/><path d="M127.17,254.34A127.17,127.17,0,1,1,254.34,127.17,127.32,127.32,0,0,1,127.17,254.34Zm0-246.81A119.65,119.65,0,1,0,246.82,127.17,119.78,119.78,0,0,0,127.17,7.53Z"/><polygon points="59.31 130.63 57.95 137.37 56.62 130.36 51.4 105.21 41.71 105.21 36.75 130.51 35.48 137.37 34.22 130.36 28.42 105.21 18.67 105.21 31.13 149.14 39.65 149.14 44.96 123.45 46.51 114.95 48.06 123.45 53.36 149.14 62.15 149.14 74.51 105.21 65.17 105.21 59.31 130.63"/><path d="M228.91,127.17a101.43,101.43,0,0,0-24.08-65.7l12.85-12.86L205.47,36.4,192.61,49.27a101.66,101.66,0,0,0-131.71.47L48,36.78,35.74,49l13,13A102,102,0,0,0,33,87.92H50.58a86,86,0,1,1-.14,78.23H32.93a102,102,0,0,0,16.2,26.6L36.22,205.66l12.21,12.21L61.33,205a101.65,101.65,0,0,0,130.85.47l12.91,12.91,12.21-12.21L204.47,193.3A101.43,101.43,0,0,0,228.91,127.17Z"/><g id="_3pAbnr.tif" data-name="3pAbnr.tif"><path d="M177.68,93.44,167.6,98.59l-33.12,16.86L98,134,76.94,144.76l-.27.13v-.28c0-2.73,0-5.45,0-8.18a.37.37,0,0,1,.24-.38c1.16-.58,2.33-1.14,3.46-1.76a7.58,7.58,0,0,0,4.19-7.45,48.62,48.62,0,0,1,.06-7.14,42.73,42.73,0,0,1,25.83-35.47,41.63,41.63,0,0,1,9.46-2.79,39.24,39.24,0,0,1,5.41-.58l.25,0h3.18l.27,0a40.59,40.59,0,0,1,7,.88,42.59,42.59,0,0,1,16.05,7.09l.16.13-.19.11c-2.53,1.29-5.07,2.58-7.59,3.88a.4.4,0,0,1-.42,0,34.9,34.9,0,0,0-14-4.2,33.7,33.7,0,0,0-10.36.71,35,35,0,0,0-27.29,37.44c0,.4.1.8.15,1.23l.26-.13q18-9.13,35.9-18.28l47.7-24.3c.43-.22.86-.42,1.29-.62Z"/><path d="M177.68,110.92a1.66,1.66,0,0,0-.21.06c-1.14.59-2.3,1.16-3.43,1.76a7.62,7.62,0,0,0-4.22,6.06,10.16,10.16,0,0,0,0,1.91,43.19,43.19,0,0,1-.23,8A42.76,42.76,0,0,1,134,165.69a41.83,41.83,0,0,1-10.06.44,42.5,42.5,0,0,1-18.59-5.86c-1.13-.66-2.21-1.41-3.37-2.15l1.39-.7c2.16-1.11,4.32-2.2,6.47-3.31a.33.33,0,0,1,.37,0,35,35,0,0,0,51.86-32c0-1-.16-2-.25-3a.7.7,0,0,0,0-.14L76.67,162.33V162q0-4.08,0-8.18a.34.34,0,0,1,.22-.36l43.36-22.08,34.41-17.52,23-11.72Z"/></g></g></g></svg>