<svg xmlns="http://www.w3.org/2000/svg" viewBox="0 0 254.34 254.34"><defs><style>.cls-1{fill:#2d7df8;}</style></defs><g id="Layer_2" data-name="Layer 2"><g id="Layer_1-2" data-name="Layer 1"><circle class="cls-1" cx="127.17" cy="127.03" r="119.64"/><path d="M127.17,254.34A127.17,127.17,0,1,1,254.34,127.17,127.32,127.32,0,0,1,127.17,254.34Zm0-246.81A119.65,119.65,0,1,0,246.82,127.17,119.78,119.78,0,0,0,127.17,7.53Z"/><polygon points="59.31 130.63 57.95 137.37 56.62 130.36 51.4 105.21 41.71 105.21 36.75 130.51 35.48 137.37 34.22 130.36 28.42 105.21 18.67 105.21 31.13 149.14 39.65 149.14 44.96 123.45 46.51 114.95 48.06 123.45 53.36 149.14 62.15 149.14 74.51 105.21 65.17 105.21 59.31 130.63"/><path d="M228.91,127.17a101.43,101.43,0,0,0-24.08-65.7l12.85-12.86L205.47,36.4,192.61,49.27a101.66,101.66,0,0,0-131.71.47L48,36.78,35.74,49l13,13A102,102,0,0,0,33,87.92H50.58a86,86,0,1,1-.14,78.23H32.93a102,102,0,0,0,16.2,26.6L36.22,205.66l12.21,12.21L61.33,205a101.65,101.65,0,0,0,130.85.47l12.91,12.91,12.21-12.21L204.47,193.3A101.43,101.43,0,0,0,228.91,127.17Z"/><path d="M136.3,191.68c-9.28,0-16-2.17-20.28-6.65s-6.3-9.16-6.3-14.32a8.67,8.67,0,0,1,1.15-4.71,7.43,7.43,0,0,1,3-3,9.8,9.8,0,0,1,4.7-1.15,8.71,8.71,0,0,1,4.71,1.15,7.5,7.5,0,0,1,3,3,9.81,9.81,0,0,1,1.15,4.71,8.93,8.93,0,0,1-1.61,5.49,7.87,7.87,0,0,1-3.9,2.86,11.25,11.25,0,0,0,6.06,3.78A29,29,0,0,0,136.2,184a17.81,17.81,0,0,0,17.31-12.26A39.07,39.07,0,0,0,155.68,158a37.55,37.55,0,0,0-2.4-14.21c-1.62-4-3.9-7-7-8.81a18.51,18.51,0,0,0-10.09-2.86c-2.4,0-5.26,1-8.81,3l-6.46,3.09V135L150.14,96H109.72v40.44a14.42,14.42,0,0,0,2.17,8.26,7.67,7.67,0,0,0,6.76,3.21,11.17,11.17,0,0,0,6.76-2.4,26.92,26.92,0,0,0,5.6-5.73,2.13,2.13,0,0,1,.69-.92,1.55,1.55,0,0,1,.93-.34,3.32,3.32,0,0,1,1.94.8,4.09,4.09,0,0,1,1,2.75c0,.46-.23,1.15-.34,2.05a18.51,18.51,0,0,1-6.88,8.58,17.43,17.43,0,0,1-9.73,3c-8.82,0-14.79-1.71-18.23-5.14s-5-8.15-5-14V96H74.77V88.46H95.51V71.27L90.8,66.56V62.67h13.75l5.15,2.63v23l53.5-.11,5.26,5.26-32.74,32.9a21.93,21.93,0,0,1,6.18-1.5,26.05,26.05,0,0,1,11.91,3.44,24.23,24.23,0,0,1,10.31,9.15,34.16,34.16,0,0,1,4.71,11.12,50.82,50.82,0,0,1,1.15,9.51,39.38,39.38,0,0,1-4,17.53,25.49,25.49,0,0,1-12.13,12.14A39.46,39.46,0,0,1,136.3,191.68Z"/></g></g></svg>