<svg xmlns="http://www.w3.org/2000/svg" viewBox="0 0 254.34 254.34"><defs><style>.cls-1{fill:#f7931a;}</style></defs><g id="Layer_2" data-name="Layer 2"><g id="Layer_1-2" data-name="Layer 1"><circle class="cls-1" cx="127.17" cy="127.03" r="119.64"/><path d="M127.17,254.34A127.17,127.17,0,1,1,254.34,127.17,127.32,127.32,0,0,1,127.17,254.34Zm0-246.81A119.65,119.65,0,1,0,246.82,127.17,119.78,119.78,0,0,0,127.17,7.53Z"/><path d="M228.91,127.17a101.43,101.43,0,0,0-24.08-65.7l12.85-12.86L205.47,36.4,192.61,49.27a101.66,101.66,0,0,0-131.71.47L48,36.78,35.74,49l13,13A102,102,0,0,0,33,87.92H50.58a86,86,0,1,1-.14,78.23H32.93a102,102,0,0,0,16.2,26.6L36.22,205.66l12.21,12.21L61.33,205a101.65,101.65,0,0,0,130.85.47l12.91,12.91,12.21-12.21L204.47,193.3A101.43,101.43,0,0,0,228.91,127.17Z"/><path id="logoMark" d="M61.9,150.79l-10-15.18H66.27v-5.73H19v5.73H33.43l-10,15.18h7.47L42.66,133l11.77,17.84Zm4.37-26.47v-5.79H52.18l9.88-15H54.59L42.66,121.63,30.73,103.55H23.26l9.89,15H19v5.78Z"/><path id="path2_fill" data-name="path2 fill" d="M156.65,96.3c-4.09-11.66-15.24-13.06-28.3-11L124.27,68.8l-10,2.49,4,16.14c-2.59.7-5.28,1.39-7.87,2.09l-4-16.24-10,2.49,4.09,16.54c-2.1.6-4.29,1.2-6.28,1.7v-.1L80.53,97.39l2.69,10.76s7.27-2,7.17-1.79c4-1,5.88,1,6.78,3l4.68,18.93a4.25,4.25,0,0,1,1.1-.2l-1.1.3,6.48,26.5a3.7,3.7,0,0,1-2.89,4.28c.2.1-7.27,1.8-7.27,1.8l1,12.55,13-3.29c2.39-.59,4.79-1.19,7.08-1.69l4.08,16.74,10-2.49-4.09-16.64c2.79-.6,5.38-1.3,8-1.89l4.09,16.53,10-2.49-4.09-16.73c16.44-5.19,27.1-12.46,24.61-28.8-2-13.15-9.36-17.33-19.42-17.23,5.08-4.49,7.37-10.67,4.38-19.23Zm-5.08,39.35c3.09,12.56-18.43,16.44-25.11,18.13L121,131.57C127.76,130,148.38,122.7,151.57,135.65Zm-12.26-30.09c2.79,11.36-15.14,14.55-20.72,15.94l-5-20.12C119.19,99.88,136.32,93.61,139.31,105.56Z"/></g></g></svg>